<svg width="24" height="24" viewBox="0 0 24 24" fill="none" xmlns="http://www.w3.org/2000/svg">
<path d="M23.6164 11.0675L14.9491 2.40006C14.7017 2.15265 14.372 2.01685 14.0204 2.01685C13.6684 2.01685 13.3388 2.15284 13.0914 2.40006L12.3045 3.18718C12.0573 3.4342 11.9211 3.76415 11.9211 4.11595C11.9211 4.46756 12.0573 4.80863 12.3045 5.05565L17.3608 10.1231H1.29657C0.572288 10.1231 0 10.6901 0 11.4146V12.5274C0 13.2519 0.572288 13.8761 1.29657 13.8761H17.4182L12.3047 18.9718C12.0575 19.2192 11.9213 19.5402 11.9213 19.892C11.9213 20.2434 12.0575 20.5691 12.3047 20.8163L13.0916 21.6009C13.339 21.8483 13.6686 21.9831 14.0206 21.9831C14.3722 21.9831 14.7019 21.8465 14.9493 21.5991L23.6166 12.9319C23.8646 12.6837 24.001 12.3524 24 12.0002C24.0008 11.6468 23.8646 11.3153 23.6164 11.0675Z" fill="#EF4454"/>
</svg>
