<svg width="19" height="19" viewBox="0 0 19 19" fill="none" xmlns="http://www.w3.org/2000/svg">
<g clip-path="url(#clip0)">
<path d="M18.2222 4.10168C17.5714 4.38715 16.8779 4.57636 16.155 4.66824C16.8987 4.22418 17.4664 3.52636 17.7333 2.68527C17.0398 3.09871 16.2742 3.39074 15.4583 3.55371C14.7998 2.85261 13.8614 2.4184 12.8376 2.4184C10.8514 2.4184 9.25232 4.03058 9.25232 6.00699C9.25232 6.29136 9.27639 6.5648 9.33545 6.82511C6.35279 6.67965 3.71357 5.25011 1.94061 3.07246C1.63107 3.60949 1.44951 4.22418 1.44951 4.8859C1.44951 6.1284 2.08936 7.2298 3.04311 7.86746C2.4667 7.85652 1.90123 7.68918 1.42217 7.42558C1.42217 7.43652 1.42217 7.45074 1.42217 7.46496C1.42217 9.2084 2.66576 10.6565 4.29654 10.9901C4.00451 11.07 3.68623 11.1082 3.35592 11.1082C3.12623 11.1082 2.89436 11.0951 2.6767 11.047C3.14154 12.4678 4.46061 13.5123 6.02904 13.5462C4.80842 14.5011 3.25857 15.0764 1.58076 15.0764C1.28654 15.0764 1.00436 15.0632 0.722168 15.0271C2.31139 16.052 4.19482 16.6371 6.22592 16.6371C12.8278 16.6371 16.4372 11.1684 16.4372 6.42808C16.4372 6.26949 16.4317 6.11636 16.424 5.96433C17.1361 5.45902 17.7344 4.82793 18.2222 4.10168Z" fill="white"/>
</g>
<defs>
<clipPath id="clip0">
<rect x="0.722168" y="0.777771" width="17.5" height="17.5" fill="white"/>
</clipPath>
</defs>
</svg>
