<svg width="32" height="32" viewBox="0 0 32 32" fill="none" xmlns="http://www.w3.org/2000/svg">
<path d="M31.7599 15.5712V3.2896C31.7599 3.1008 31.5199 3.0144 31.4015 3.1648L17.9871 19.9328C17.9634 19.9623 17.9485 19.9979 17.9442 20.0356C17.9398 20.0732 17.9462 20.1113 17.9626 20.1454C17.979 20.1796 18.0048 20.2084 18.0369 20.2285C18.0689 20.2486 18.1061 20.2593 18.1439 20.2592H27.8367C28.0991 20.2592 28.3455 20.1408 28.5087 19.936L31.5711 16.1088C31.6927 15.9552 31.7599 15.7664 31.7599 15.5712V15.5712ZM0.374347 16.1088L10.4511 28.704C10.6143 28.9088 10.8607 29.0272 11.1231 29.0272H20.8159C20.9855 29.0272 21.0783 28.832 20.9727 28.7008L0.543947 3.1648C0.425547 3.0176 0.185547 3.1008 0.185547 3.2896V15.5712C0.185547 15.7664 0.252747 15.9552 0.374347 16.1088Z" fill="#333333"/>
</svg>
